<svg height='100px' width='100px'  fill="#040404" xmlns:dc="http://purl.org/dc/elements/1.1/" xmlns:cc="http://creativecommons.org/ns#" xmlns:rdf="http://www.w3.org/1999/02/22-rdf-syntax-ns#" xmlns:svg="http://www.w3.org/2000/svg" xmlns="http://www.w3.org/2000/svg" xmlns:sodipodi="http://sodipodi.sourceforge.net/DTD/sodipodi-0.dtd" xmlns:inkscape="http://www.inkscape.org/namespaces/inkscape" version="1.1" viewBox="0 0 6.3499999 6.3500002" x="0px" y="0px"><g><g transform="translate(-17.198201,-371.87677)" style="" display="inline"><path style="color:#000000;font-style:normal;font-variant:normal;font-weight:normal;font-stretch:normal;font-size:medium;line-height:normal;font-family:sans-serif;font-variant-ligatures:normal;font-variant-position:normal;font-variant-caps:normal;font-variant-numeric:normal;font-variant-alternates:normal;font-variant-east-asian:normal;font-feature-settings:normal;font-variation-settings:normal;text-indent:0;text-align:start;text-decoration:none;text-decoration-line:none;text-decoration-style:solid;text-decoration-color:#000000;letter-spacing:normal;word-spacing:normal;text-transform:none;writing-mode:lr-tb;direction:ltr;text-orientation:mixed;dominant-baseline:auto;baseline-shift:baseline;text-anchor:start;white-space:normal;shape-padding:0;shape-margin:0;inline-size:0;clip-rule:nonzero;display:inline;overflow:visible;visibility:visible;opacity:1;isolation:auto;mix-blend-mode:normal;color-interpolation:sRGB;color-interpolation-filters:linearRGB;solid-color:#000000;solid-opacity:1;vector-effect:none;fill:#040404;fill-opacity:1;fill-rule:nonzero;stroke:none;stroke-width:2;stroke-linecap:round;stroke-linejoin:round;stroke-miterlimit:4;stroke-dasharray:none;stroke-dashoffset:0;stroke-opacity:1;color-rendering:auto;image-rendering:auto;shape-rendering:auto;text-rendering:auto;enable-background:accumulate;stop-color:#000000;stop-opacity:1" d="m 70.96875,311.99805 a 1.0000006,1.0000006 0 0 0 -0.677734,0.29492 l -2.998047,2.99609 a 1.0001006,1.0001006 0 0 0 0,1.41797 l 2.998047,2.99609 a 1.0000006,1.0000006 0 0 0 1.416015,0 1.0000006,1.0000006 0 0 0 0,-1.41015 l -1.287109,-1.29102 H 85.001953 V 324 H 70.998047 A 1.0000006,1.0000006 0 0 0 70.001953,324.99609 1.0000006,1.0000006 0 0 0 70.998047,326 h 15 a 1.0001006,1.0001006 0 0 0 1.005859,-1.00391 v -8.99804 a 1.0001006,1.0001006 0 0 0 -1.005859,-0.9961 H 70.416016 l 1.291015,-1.29297 a 1.0000006,1.0000006 0 0 0 0,-1.41601 1.0000006,1.0000006 0 0 0 -0.738281,-0.29492 z" transform="matrix(0.26458334,0,0,0.26458334,2.8843824e-8,290.64999)"></path></g></g></svg>