<svg height='100px' width='100px'  fill="#000000" xmlns="http://www.w3.org/2000/svg" xmlns:xlink="http://www.w3.org/1999/xlink" xml:space="preserve" version="1.1" style="shape-rendering:geometricPrecision;text-rendering:geometricPrecision;image-rendering:optimizeQuality;" viewBox="0 0 847 847" x="0px" y="0px" fill-rule="evenodd" clip-rule="evenodd"><defs><style type="text/css">
   
    .fil0 {fill:#000000}
   
  </style></defs><g><path class="fil0" d="M486 807c-314,-8 -436,-630 -130,-767l1 0 1 0c21,1 42,5 63,12 138,48 219,207 240,343 25,161 -23,330 -173,412l-1 0 -1 0zm-126 -755c-35,26 -63,54 -82,93 59,-28 121,-38 185,-30 -28,-30 -62,-53 -103,-63zm-88 105c-9,19 -16,41 -21,65 72,-56 158,-71 247,-62 -8,-13 -17,-24 -26,-35 -70,-10 -137,1 -200,32zm214 646c-307,-7 -432,-623 -129,-759 295,19 448,585 129,759zm40 -666c-14,-4 -28,-8 -42,-10 8,10 16,22 24,34 14,2 28,4 43,7l-25 -31zm-266 26c-9,5 -17,9 -25,15 -16,28 -23,58 -31,88 11,-13 24,-25 37,-36 4,-25 11,-47 19,-67zm137 -105c34,13 54,31 78,59 13,2 25,4 37,7 -33,-30 -70,-59 -115,-66zm-74 13c-34,23 -60,56 -80,92 7,-5 15,-9 22,-12 14,-31 34,-57 58,-80zm-74 164c-33,156 8,320 80,460 87,12 174,6 255,-32 9,-23 14,-47 19,-71l-6 -1 0 -7c-8,1 -17,2 -28,1l1 -17c11,0 21,0 29,-1 3,-21 4,-42 4,-62 -8,1 -17,2 -27,2l0 -17c10,-1 19,-2 27,-3 0,-21 -2,-41 -4,-61 -8,1 -17,0 -28,-1l3 -17c9,1 16,1 23,1 -4,-24 -8,-47 -15,-71l-28 6 -4 -17 27 -6c-7,-20 -15,-41 -24,-60l-27 7 -4 -16 23 -7c-2,-3 -3,-7 -5,-10l3 -2c-11,-23 -24,-44 -39,-64 -93,-10 -182,5 -255,66zm310 -57c-15,-3 -30,-5 -44,-7 13,18 24,38 35,58l5 -2c2,4 5,9 7,13l22 -6 4 17 -18 5c9,20 17,40 24,61l20 -4 4 17 -19 4c7,24 11,47 15,72 5,-2 11,-4 17,-6l7 15c-8,4 -15,6 -22,8 3,20 4,40 4,61 6,-1 11,-3 17,-4l5 17c-8,2 -15,3 -22,5 0,20 -1,40 -3,61 6,-2 11,-4 17,-6l7 16c-9,3 -17,6 -26,8 0,4 -1,8 -1,12l-4 0c-4,22 -8,44 -16,64 10,-5 20,-10 29,-16 53,-140 39,-323 -64,-463zm-321 66c-14,12 -26,24 -38,40 -21,140 11,292 97,406 7,1 14,2 21,3 -70,-139 -109,-296 -80,-449zm98 461c11,13 23,26 35,36 65,5 129,-4 189,-30 7,-12 13,-24 19,-37 -77,35 -161,41 -243,31zm46 46c30,24 63,41 102,43 21,-12 53,-50 67,-71 -54,22 -111,31 -169,28zm234 -95c-9,5 -18,9 -27,13 -5,13 -10,24 -17,36 6,-3 13,-7 19,-10 9,-11 17,-26 25,-39zm-293 47c-5,-1 -10,-2 -15,-2 15,16 24,27 42,39l7 0c-12,-11 -23,-23 -34,-37zm-48 -543c-7,17 -13,34 -17,52 69,-49 149,-64 232,-57 -6,-9 -13,-18 -20,-26 -68,-10 -133,1 -195,31zm249 -20c-10,-2 -20,-5 -30,-7 6,8 11,16 17,24 10,2 20,3 30,5l-17 -22zm-287 88c4,-19 8,-38 15,-56 -5,3 -9,6 -14,8 -12,23 -19,47 -26,71 8,-8 16,-16 25,-23zm108 482c9,10 18,19 27,27 64,5 126,-4 185,-30 5,-8 9,-16 13,-25 -71,30 -148,36 -225,28zm260 -44c-4,2 -8,4 -12,6 -4,8 -7,16 -11,23 2,-1 4,-2 6,-3 6,-8 12,-17 17,-26z"></path></g></svg>