<svg height='100px' width='100px'  fill="#ffffff" xmlns="http://www.w3.org/2000/svg" viewBox="0 0 64 64" x="0px" y="0px"><g data-name="Payment-Sale Slip"><path d="M53.991,15a1,1,0,0,0-.284-.707l-12-12A.99.99,0,0,0,41,2.008V2H13a3,3,0,0,0-3,3V59a3,3,0,0,0,3,3H51a3,3,0,0,0,3-3V15ZM42,5.414,50.586,14H42ZM51,60H13a1,1,0,0,1-1-1V5a1,1,0,0,1,1-1H40V15a1,1,0,0,0,1,1H52V59A1,1,0,0,1,51,60Z"></path><path d="M22,27a3,3,0,0,1-3-3H17a5.009,5.009,0,0,0,4,4.9V31h2V28.9A5,5,0,0,0,22,19a3,3,0,1,1,3-3h2a5.009,5.009,0,0,0-4-4.9V9H21v2.1A5,5,0,0,0,22,21a3,3,0,0,1,0,6Z"></path><rect x="14" y="37" width="16" height="2"></rect><rect x="32" y="37" width="18" height="2"></rect><rect x="14" y="43" width="18" height="2"></rect><rect x="34" y="43" width="16" height="2"></rect><rect x="14" y="49" width="11" height="2"></rect><rect x="27" y="49" width="23" height="2"></rect></g></svg>