<svg height='100px' width='100px'  fill="#000000" xmlns="http://www.w3.org/2000/svg" xmlns:xlink="http://www.w3.org/1999/xlink" xml:space="preserve" version="1.1" style="shape-rendering:geometricPrecision;text-rendering:geometricPrecision;image-rendering:optimizeQuality;" viewBox="0 0 847 847" x="0px" y="0px" fill-rule="evenodd" clip-rule="evenodd"><defs><style type="text/css">
   
    .fil0 {fill:#000000;fill-rule:nonzero}
   
  </style></defs><g><path class="fil0" d="M423 23c221,0 401,179 401,400 0,222 -180,401 -401,401 -221,0 -400,-180 -400,-401 0,-221 179,-400 400,-400zm17 767c-16,11 -35,17 -54,20 77,7 155,-9 223,-46 -3,0 -5,-1 -8,-1 -52,16 -107,24 -161,27zm-242 -51c-2,-21 9,-45 19,-63 -38,-81 -60,-128 -65,-138 -34,-16 -63,-37 -85,-68 -10,12 -17,27 -21,43 21,91 75,171 152,226zm-34 -205c6,12 27,59 64,137 49,12 98,22 147,28 30,-33 57,-69 81,-108 -23,-43 -43,-88 -61,-133 -52,-8 -104,-17 -156,-28 -24,35 -50,69 -75,104zm303 64c-24,38 -51,75 -82,108l56 72c53,-3 106,-11 156,-27 31,-31 59,-65 80,-104 -25,-20 -45,-51 -60,-78 -47,19 -100,26 -150,29zm159 -38c14,26 35,59 59,78 32,-16 60,-37 84,-63 23,-61 32,-116 27,-166 -14,-24 -32,-47 -54,-65 -30,24 -62,47 -94,69 -3,48 -9,101 -22,147zm-385 -142c52,11 104,20 155,28 29,-42 64,-78 104,-109 -13,-46 -25,-94 -37,-142 -49,-8 -98,-16 -146,-24 -41,37 -80,77 -115,120 14,42 27,84 39,127zm-200 71c5,-11 12,-22 21,-31 -6,-59 0,-95 18,-151 -4,-18 -5,-36 -5,-54 -36,73 -48,156 -34,236zm47 -261c-2,23 -2,47 3,70 32,-15 67,-23 102,-15 35,-43 74,-83 114,-120 -8,-24 -7,-54 -6,-79 -29,0 -59,6 -87,13 -52,33 -95,78 -126,131zm387 -36c12,48 24,96 37,143 45,13 98,33 131,67 32,-22 63,-44 93,-68 -6,-49 -20,-96 -45,-138 -41,-29 -84,-51 -131,-66 -29,19 -58,40 -85,62zm333 215c4,31 2,64 -5,99 9,-39 12,-104 5,-142 0,9 1,35 0,43zm-245 -289c46,15 90,37 131,65 6,-8 15,-11 25,-11 -54,-63 -126,-108 -207,-126 -11,0 -20,1 -28,3 32,16 58,40 79,69zm-259 -46c48,-22 108,-40 164,-30 2,-1 4,-2 7,-3 -77,-11 -157,3 -227,38 19,-3 37,-5 56,-5z"></path></g></svg>