<?xml version="1.0" encoding="UTF-8"?>
<svg xmlns="http://www.w3.org/2000/svg" xmlns:xlink="http://www.w3.org/1999/xlink" width="20pt" height="25pt" viewBox="0 0 20 25" version="1.1">
<g id="surface1">
<path style=" stroke:none;fill-rule:nonzero;fill:rgb(0%,0%,0%);fill-opacity:1;" d="M 9.167969 4.167969 C 6.867188 4.167969 5 6.035156 5 8.332031 C 5 10.632812 6.867188 12.5 9.167969 12.5 C 11.464844 12.5 13.332031 10.632812 13.332031 8.332031 C 13.332031 6.035156 11.464844 4.167969 9.167969 4.167969 Z M 13.460938 12.28125 L 16.421875 15.242188 C 16.746094 15.570312 16.746094 16.097656 16.421875 16.421875 C 16.097656 16.746094 15.570312 16.746094 15.242188 16.421875 L 12.160156 13.339844 C 11.285156 13.863281 10.261719 14.167969 9.167969 14.167969 C 5.945312 14.167969 3.332031 11.554688 3.332031 8.332031 C 3.332031 5.113281 5.945312 2.5 9.167969 2.5 C 12.386719 2.5 15 5.113281 15 8.332031 C 15 9.855469 14.414062 11.242188 13.460938 12.28125 Z M 13.460938 12.28125 "/>
</g>
</svg>
