<?xml version="1.0" encoding="UTF-8"?>
<svg xmlns="http://www.w3.org/2000/svg" xmlns:xlink="http://www.w3.org/1999/xlink" width="32pt" height="32pt" viewBox="0 0 32 32" version="1.1">
<g id="surface1">
<path style=" stroke:none;fill-rule:nonzero;fill:rgb(0%,0%,0%);fill-opacity:1;" d="M 24.585938 25.152344 C 24.585938 25.917969 23.949219 26.539062 23.167969 26.539062 L 4.488281 26.539062 C 3.707031 26.539062 3.074219 25.917969 3.074219 25.152344 L 3.074219 6.824219 C 3.074219 6.058594 3.707031 5.457031 4.488281 5.457031 L 22.136719 5.457031 L 25.929688 2.492188 C 25.890625 2.492188 25.871094 2.445312 25.832031 2.445312 L 1.824219 2.445312 C 0.820312 2.445312 0 3.226562 0 4.210938 L 0 27.765625 C 0 28.75 0.820312 29.554688 1.824219 29.554688 L 25.832031 29.554688 C 26.839844 29.554688 27.660156 28.75 27.660156 27.765625 L 27.660156 14.539062 L 24.585938 16.941406 Z M 24.585938 25.152344 "/>
<path style=" stroke:none;fill-rule:nonzero;fill:rgb(0%,0%,0%);fill-opacity:1;" d="M 28.847656 2.828125 L 27.472656 4.117188 L 30.625 7.347656 L 32 6.0625 Z M 28.847656 2.828125 "/>
<path style=" stroke:none;fill-rule:nonzero;fill:rgb(0%,0%,0%);fill-opacity:1;" d="M 13.128906 17.414062 L 16.265625 20.632812 L 29.328125 8.398438 L 26.191406 5.183594 Z M 13.128906 17.414062 "/>
<path style=" stroke:none;fill-rule:nonzero;fill:rgb(0%,0%,0%);fill-opacity:1;" d="M 10.273438 23.066406 L 13.488281 23.136719 L 13.523438 23.136719 L 14.660156 22.074219 L 11.519531 18.851562 L 10.363281 19.933594 Z M 10.273438 23.066406 "/>
</g>
</svg>
